<svg width="131" height="54" viewBox="0 0 131 54" fill="none" xmlns="http://www.w3.org/2000/svg">
<path d="M24.0504 44.0924V53M24.0504 53H13.3613M24.0504 53H34.2941" stroke="white" stroke-width="2"/>
<mask id="mask0_89_517" style="mask-type:alpha" maskUnits="userSpaceOnUse" x="0" y="0" width="48" height="48">
<rect width="47.2101" height="47.2101" rx="23.605" fill="#006E5B"/>
</mask>
<g mask="url(#mask0_89_517)">
<rect x="1" y="1" width="45.2101" height="45.2101" rx="22.605" fill="#00A88B" stroke="white" stroke-width="2"/>
<path d="M24.0506 29.395V0M24.0506 29.395L48.5464 12.0252M24.0506 29.395L-0.890625 12.0252M24.0506 29.395V50.7731" stroke="white" stroke-width="2"/>
</g>
<path d="M72.5332 29.3867H75.7559C75.6699 30.5273 75.3535 31.5391 74.8066 32.4219C74.2598 33.2969 73.498 33.9844 72.5215 34.4844C71.5449 34.9844 70.3613 35.2344 68.9707 35.2344C67.9004 35.2344 66.9355 35.0469 66.0762 34.6719C65.2246 34.2891 64.4941 33.7461 63.8848 33.043C63.2832 32.332 62.8223 31.4805 62.502 30.4883C62.1816 29.4883 62.0215 28.3672 62.0215 27.125V25.8242C62.0215 24.582 62.1855 23.4609 62.5137 22.4609C62.8418 21.4609 63.3105 20.6094 63.9199 19.9062C64.5371 19.1953 65.2754 18.6484 66.1348 18.2656C67.002 17.8828 67.9707 17.6914 69.041 17.6914C70.4316 17.6914 71.6074 17.9492 72.5684 18.4648C73.5293 18.9727 74.2754 19.6719 74.8066 20.5625C75.3379 21.4531 75.6582 22.4766 75.7676 23.6328H72.5449C72.4824 22.9141 72.3262 22.3047 72.0762 21.8047C71.834 21.3047 71.4668 20.9258 70.9746 20.668C70.4902 20.4023 69.8457 20.2695 69.041 20.2695C68.416 20.2695 67.8652 20.3867 67.3887 20.6211C66.9199 20.8555 66.5293 21.207 66.2168 21.6758C65.9043 22.1367 65.6699 22.7148 65.5137 23.4102C65.3574 24.0977 65.2793 24.8945 65.2793 25.8008V27.125C65.2793 27.9922 65.3496 28.7695 65.4902 29.457C65.6309 30.1445 65.8496 30.7266 66.1465 31.2031C66.4434 31.6797 66.8262 32.043 67.2949 32.293C67.7637 32.543 68.3223 32.668 68.9707 32.668C69.7598 32.668 70.4004 32.543 70.8926 32.293C71.3926 32.043 71.7715 31.6758 72.0293 31.1914C72.2949 30.707 72.4629 30.1055 72.5332 29.3867ZM77.4668 28.7891V28.543C77.4668 27.6133 77.5996 26.7578 77.8652 25.9766C78.1309 25.1875 78.5176 24.5039 79.0254 23.9258C79.5332 23.3477 80.1543 22.8984 80.8887 22.5781C81.623 22.25 82.459 22.0859 83.3965 22.0859C84.3496 22.0859 85.1934 22.25 85.9277 22.5781C86.6699 22.8984 87.2949 23.3477 87.8027 23.9258C88.3105 24.5039 88.6973 25.1875 88.9629 25.9766C89.2285 26.7578 89.3613 27.6133 89.3613 28.543V28.7891C89.3613 29.7109 89.2285 30.5664 88.9629 31.3555C88.6973 32.1367 88.3105 32.8203 87.8027 33.4062C87.2949 33.9844 86.6738 34.4336 85.9395 34.7539C85.2051 35.0742 84.3652 35.2344 83.4199 35.2344C82.4824 35.2344 81.6426 35.0742 80.9004 34.7539C80.1582 34.4336 79.5332 33.9844 79.0254 33.4062C78.5176 32.8203 78.1309 32.1367 77.8652 31.3555C77.5996 30.5664 77.4668 29.7109 77.4668 28.7891ZM80.5605 28.543V28.7891C80.5605 29.3438 80.6152 29.8633 80.7246 30.3477C80.834 30.832 81.002 31.2578 81.2285 31.625C81.4551 31.9922 81.748 32.2812 82.1074 32.4922C82.4746 32.6953 82.9121 32.7969 83.4199 32.7969C83.9199 32.7969 84.3496 32.6953 84.709 32.4922C85.0684 32.2812 85.3613 31.9922 85.5879 31.625C85.8223 31.2578 85.9941 30.832 86.1035 30.3477C86.2129 29.8633 86.2676 29.3438 86.2676 28.7891V28.543C86.2676 27.9961 86.2129 27.4844 86.1035 27.0078C85.9941 26.5234 85.8223 26.0977 85.5879 25.7305C85.3613 25.3555 85.0645 25.0625 84.6973 24.8516C84.3379 24.6328 83.9043 24.5234 83.3965 24.5234C82.8965 24.5234 82.4668 24.6328 82.1074 24.8516C81.748 25.0625 81.4551 25.3555 81.2285 25.7305C81.002 26.0977 80.834 26.5234 80.7246 27.0078C80.6152 27.4844 80.5605 27.9961 80.5605 28.543ZM103.002 32.5625V35H91.4473V32.9141L96.9902 26.9258C97.5684 26.2695 98.0254 25.6992 98.3613 25.2148C98.6973 24.7305 98.9355 24.293 99.0762 23.9023C99.2246 23.5039 99.2988 23.125 99.2988 22.7656C99.2988 22.2422 99.2051 21.7852 99.0176 21.3945C98.8301 20.9961 98.5566 20.6875 98.1973 20.4688C97.8457 20.25 97.4121 20.1406 96.8965 20.1406C96.3262 20.1406 95.8379 20.2734 95.4316 20.5391C95.0332 20.7969 94.7285 21.1562 94.5176 21.6172C94.3145 22.0781 94.2129 22.6055 94.2129 23.1992H91.1074C91.1074 22.1914 91.3418 21.2734 91.8105 20.4453C92.2793 19.6094 92.9512 18.9414 93.8262 18.4414C94.7012 17.9414 95.7402 17.6914 96.9434 17.6914C98.1152 17.6914 99.1074 17.8867 99.9199 18.2773C100.732 18.6602 101.35 19.207 101.771 19.918C102.193 20.6289 102.404 21.4766 102.404 22.4609C102.404 23.0078 102.314 23.5469 102.135 24.0781C101.955 24.6094 101.701 25.1367 101.373 25.6602C101.053 26.1758 100.67 26.6992 100.225 27.2305C99.7793 27.7617 99.2832 28.3047 98.7363 28.8594L95.4082 32.5625H103.002ZM105.451 33.4883C105.451 33.0195 105.611 32.625 105.932 32.3047C106.252 31.9844 106.686 31.8242 107.232 31.8242C107.779 31.8242 108.213 31.9844 108.533 32.3047C108.854 32.625 109.014 33.0195 109.014 33.4883C109.014 33.9492 108.854 34.3398 108.533 34.6602C108.213 34.9727 107.779 35.1289 107.232 35.1289C106.686 35.1289 106.252 34.9727 105.932 34.6602C105.611 34.3398 105.451 33.9492 105.451 33.4883ZM115.6 17.9375V35H112.377V17.9375H115.6ZM122.479 25.3086V27.8516H114.756V25.3086H122.479ZM123.381 17.9375V20.4805H114.756V17.9375H123.381ZM128.619 22.3203V35H125.514V22.3203H128.619ZM125.303 19.0039C125.303 18.543 125.459 18.1602 125.771 17.8555C126.092 17.5508 126.521 17.3984 127.061 17.3984C127.6 17.3984 128.025 17.5508 128.338 17.8555C128.658 18.1602 128.818 18.543 128.818 19.0039C128.818 19.457 128.658 19.8359 128.338 20.1406C128.025 20.4453 127.6 20.5977 127.061 20.5977C126.521 20.5977 126.092 20.4453 125.771 20.1406C125.459 19.8359 125.303 19.457 125.303 19.0039Z" fill="white"/>
</svg>
