<svg width="207" height="61" viewBox="0 0 207 61" fill="none" xmlns="http://www.w3.org/2000/svg">
<path d="M49.9062 26C49.9062 39.2548 25.9062 50 25.9062 50C25.9062 50 1.90625 39.2548 1.90625 26C1.90625 12.7452 12.6514 2 25.9062 2C39.1611 2 49.9062 12.7452 49.9062 26Z" fill="black"/>
<path d="M25.9062 50C25.9062 50 49.9062 39.2548 49.9062 26C49.9062 12.7452 39.1611 2 25.9062 2C12.6514 2 1.90625 12.7452 1.90625 26C1.90625 39.2548 25.9062 50 25.9062 50ZM25.9062 50V59.5H15.9062H35.4062M25.9062 50V37M25.9062 18V30M25.9062 18L31.4062 14M25.9062 18L21.4062 13.5M25.9062 37L35.4062 32.5M25.9062 37V30M25.9062 30L14.9062 23" stroke="url(#paint0_linear_161_2)" stroke-width="2.5"/>
<path d="M89.9488 44.36C88.4368 44.36 87.1168 44.06 85.9888 43.46C84.8848 42.86 84.0208 42.008 83.3968 40.904C82.7968 39.8 82.4968 38.504 82.4968 37.016V24.704C82.4968 23.192 82.7968 21.884 83.3968 20.78C84.0208 19.676 84.8848 18.836 85.9888 18.26C87.1168 17.66 88.4368 17.36 89.9488 17.36C91.4848 17.36 92.8048 17.672 93.9088 18.296C95.0368 18.92 95.9008 19.796 96.5008 20.924C97.1248 22.052 97.4368 23.384 97.4368 24.92H95.0608C95.0608 23.216 94.6048 21.884 93.6928 20.924C92.7808 19.964 91.5328 19.484 89.9488 19.484C88.3888 19.484 87.1528 19.952 86.2408 20.888C85.3288 21.8 84.8728 23.072 84.8728 24.704V37.016C84.8728 38.648 85.3288 39.932 86.2408 40.868C87.1528 41.78 88.3888 42.236 89.9488 42.236C91.5568 42.236 92.8048 41.756 93.6928 40.796C94.6048 39.812 95.0608 38.48 95.0608 36.8H97.4368C97.4368 38.336 97.1248 39.668 96.5008 40.796C95.9008 41.924 95.0368 42.8 93.9088 43.424C92.8048 44.048 91.4848 44.36 89.9488 44.36ZM111.355 44.36C109.867 44.36 108.571 44.072 107.467 43.496C106.387 42.896 105.547 42.044 104.947 40.94C104.371 39.836 104.083 38.528 104.083 37.016V24.704C104.083 23.192 104.371 21.896 104.947 20.816C105.547 19.712 106.387 18.86 107.467 18.26C108.571 17.66 109.867 17.36 111.355 17.36C112.843 17.36 114.127 17.66 115.207 18.26C116.311 18.86 117.151 19.712 117.727 20.816C118.327 21.896 118.627 23.192 118.627 24.704V37.016C118.627 38.528 118.327 39.836 117.727 40.94C117.151 42.044 116.311 42.896 115.207 43.496C114.127 44.072 112.843 44.36 111.355 44.36ZM111.355 42.236C112.915 42.236 114.115 41.78 114.955 40.868C115.819 39.956 116.251 38.672 116.251 37.016V24.704C116.251 23.048 115.819 21.764 114.955 20.852C114.091 19.94 112.891 19.484 111.355 19.484C109.819 19.484 108.619 19.94 107.755 20.852C106.891 21.764 106.459 23.048 106.459 24.704V37.016C106.459 38.672 106.879 39.956 107.719 40.868C108.583 41.78 109.795 42.236 111.355 42.236ZM125.525 44V41.48L133.769 33.02C135.281 31.436 136.397 29.996 137.117 28.7C137.837 27.38 138.197 26.084 138.197 24.812C138.197 23.156 137.717 21.848 136.757 20.888C135.797 19.928 134.501 19.448 132.869 19.448C131.165 19.448 129.821 19.94 128.837 20.924C127.853 21.884 127.361 23.204 127.361 24.884H124.985C125.009 23.348 125.345 22.016 125.993 20.888C126.665 19.76 127.589 18.896 128.765 18.296C129.941 17.672 131.309 17.36 132.869 17.36C134.429 17.36 135.785 17.66 136.937 18.26C138.113 18.86 139.013 19.712 139.637 20.816C140.261 21.896 140.573 23.204 140.573 24.74C140.573 26.3 140.141 27.872 139.277 29.456C138.437 31.04 137.105 32.744 135.281 34.568L128.045 41.84H141.149V44H125.525ZM148.767 33.164V31.04H160.287V33.164H148.767ZM169.165 44V17.72H184.213V19.88H171.505V29.672H183.097V31.868H171.541V44H169.165ZM190.174 44V41.84H197.338V26.36H191.074V24.2H199.714V41.84H206.446V44H190.174ZM198.238 20.492C197.542 20.492 196.99 20.312 196.582 19.952C196.174 19.568 195.97 19.052 195.97 18.404C195.97 17.756 196.174 17.24 196.582 16.856C196.99 16.472 197.542 16.28 198.238 16.28C198.934 16.28 199.486 16.472 199.894 16.856C200.302 17.24 200.506 17.756 200.506 18.404C200.506 19.052 200.302 19.568 199.894 19.952C199.486 20.312 198.934 20.492 198.238 20.492Z" fill="url(#paint1_linear_161_2)"/>
<defs>
<linearGradient id="paint0_linear_161_2" x1="25.9062" y1="2" x2="25.9063" y2="59.5" gradientUnits="userSpaceOnUse">
<stop stop-color="#2CFF04"/>
<stop offset="1" stop-color="#FFE600"/>
</linearGradient>
<linearGradient id="paint1_linear_161_2" x1="143.969" y1="7" x2="143.969" y2="55" gradientUnits="userSpaceOnUse">
<stop stop-color="#24E500"/>
<stop offset="1" stop-color="#FFE600"/>
</linearGradient>
</defs>
</svg>
