<svg width="1562" height="628" fill="none" xmlns="http://www.w3.org/2000/svg">
<g clip-path="url(#clip0_133_90)">
<rect width="1562" height="628" fill="black"/>
<g clip-path="url(#clip1_133_90)">
<path d="M232.303 1744.94L1349.27 1780.79C1366.91 1781.36 1382.26 1768.7 1385.07 1751.28L1640.32 169.927C1645.31 138.99 1610.27 117.702 1585.03 136.334L1498.97 199.852C1318.35 333.153 1110.66 425.048 890.727 468.977C564.536 534.128 226.173 475.574 -58.3939 304.728L-65.1005 300.702C-89.7122 285.926 -120.118 307.964 -113.769 335.977L199.403 1717.81C202.912 1733.29 216.422 1744.43 232.303 1744.94Z" fill="#1A3638"/>
<path d="M447.803 1785.18L1563.01 1715.68C1580.62 1714.59 1594.58 1700.55 1595.56 1682.95L1685.08 85.3256C1686.83 54.0738 1649.75 36.1944 1626.56 57.1129L1503.38 168.256C1366.19 292.033 1206.27 388.108 1032.33 451.235C704.683 570.151 341.585 548.504 28.6442 391.397L1.95585 377.999C-23.7166 365.11 -51.9565 389.602 -42.7595 416.779L412.237 1761.28C417.339 1776.35 431.943 1786.17 447.803 1785.18Z" fill="#142A2C"/>
<path d="M289.891 1790.22L1405.34 1831.01C1423.54 1831.67 1439.26 1818.27 1441.49 1800.19L1637.89 210.254C1641.66 179.673 1605.33 161.079 1582.61 181.967L1533.71 226.926C1373.05 374.635 1178.22 480.077 966.864 533.701C659.745 611.623 334.559 559.657 67.938 390.049L-0.268103 346.66C-24.4038 331.307 -55.1618 352.894 -48.9719 380.843L257.125 1762.93C260.557 1778.43 274.012 1789.64 289.891 1790.22Z" fill="#204043"/>
<path d="M-13.8049 2216L1707.01 2216C1726.46 2216 1742.3 2200.18 1742.3 2180.76L1742.3 314.677C1742.3 289.356 1716.2 272.619 1693.04 283.088L1353.92 436.381C999.065 596.789 595.852 609.59 233.737 471.945L-0.875486 382.765C-23.8286 374.04 -48.5637 391.139 -48.5637 415.731L-48.5637 2181.28C-48.5637 2200.5 -33.0435 2216 -13.8049 2216Z" fill="#1B1B1B"/>
<path d="M1182.68 300.854C1190.82 292.433 1202.63 287.603 1215.06 287.603L1215.54 287.604C1223.73 287.607 1231.78 285.429 1238.85 281.293L1239.59 280.863L1239 280.25C1235.79 276.92 1233.11 273.115 1231.05 268.968C1232.51 270.334 1234.25 271.361 1236.15 271.976C1238.05 272.592 1240.07 272.781 1242.05 272.53C1244.14 272.28 1246.15 271.559 1247.92 270.419C1249.7 269.28 1251.19 267.752 1252.29 265.951C1256.64 258.882 1261.82 248.85 1261.82 241.208C1261.81 234.748 1260.46 228.361 1257.86 222.453C1255.25 216.545 1251.45 211.247 1246.69 206.894C1243.67 204.17 1241.27 200.839 1239.62 197.118C1237.98 193.398 1237.13 189.372 1237.15 185.303L1237.15 184.724C1237.15 179.367 1236.5 174.03 1235.2 168.832L1235.07 168.307L1234.53 168.326C1231.06 168.445 1227.59 168.153 1224.18 167.456C1227.37 167.063 1230.5 166.23 1233.47 164.98L1234.05 164.745L1233.85 164.15C1220.29 155.734 1189.69 160.092 1171.93 119.349C1157.52 86.3112 1106.7 148.676 1106.7 184.724C1106.7 188.403 1110.33 193.263 1107.62 195.694C1078.23 221.976 1098.51 238.852 1104.9 255.833C1106.42 259.862 1103.13 264.285 1103.13 268.644C1103.13 269.384 1103.15 270.147 1103.18 270.914L1103.24 272.091L1104.22 271.438C1106.16 270.165 1107.95 268.687 1109.58 267.031C1107.89 270.919 1107.1 275.136 1107.25 279.372C1107.41 283.608 1108.51 287.755 1110.48 291.508C1113.55 297.335 1116.53 301.506 1119.33 303.906C1128.29 311.59 1139.83 315.554 1151.61 314.987C1163.38 314.419 1174.5 309.364 1182.68 300.854V300.854Z" fill="#008F77"/>
<path d="M1162.78 182.446L1170 177.075C1164.39 176.5 1162.09 179.345 1161.15 181.597C1156.77 179.904 1152 182.122 1152 182.122L1166.44 187C1165.71 185.19 1164.44 183.61 1162.78 182.446V182.446Z" fill="white"/>
<path d="M1209.78 133.446L1217 128.075C1211.39 127.5 1209.09 130.345 1208.15 132.597C1203.77 130.904 1199 133.122 1199 133.122L1213.44 138C1212.71 136.19 1211.44 134.61 1209.78 133.446V133.446Z" fill="#FF6584"/>
<path d="M1098.22 150.446L1091 145.075C1096.61 144.5 1098.91 147.345 1099.85 149.597C1104.23 147.904 1109 150.122 1109 150.122L1094.56 155C1095.29 153.19 1096.56 151.61 1098.22 150.446V150.446Z" fill="#FF6584"/>
<path d="M1048.22 192.446L1041 187.075C1046.61 186.5 1048.91 189.345 1049.85 191.597C1054.23 189.904 1059 192.122 1059 192.122L1044.56 197C1045.29 195.19 1046.56 193.61 1048.22 192.446V192.446Z" fill="white"/>
<path d="M1134.56 407.527L1134.56 407.527C1134.58 407.681 1134.57 407.838 1134.52 407.987C1134.48 408.136 1134.4 408.273 1134.3 408.391C1134.2 408.508 1134.07 408.602 1133.93 408.667C1133.79 408.731 1133.64 408.764 1133.48 408.764C1133.22 408.764 1132.97 408.67 1132.78 408.498C1132.58 408.327 1132.45 408.091 1132.41 407.833C1132.39 407.692 1131.52 396.356 1131.04 380.906C1130.56 365.451 1130.47 345.858 1132.02 329.202C1134.9 298.444 1144.13 254.119 1171.81 217.707C1171.89 217.593 1172 217.498 1172.12 217.426C1172.25 217.354 1172.38 217.307 1172.52 217.288C1172.66 217.269 1172.81 217.278 1172.94 217.314C1173.08 217.351 1173.21 217.414 1173.32 217.5C1173.44 217.587 1173.53 217.695 1173.6 217.818C1173.68 217.941 1173.72 218.077 1173.74 218.218C1173.76 218.36 1173.75 218.503 1173.71 218.641C1173.68 218.778 1173.61 218.907 1173.53 219.021C1146.17 255.012 1137.03 298.905 1134.18 329.404C1132.63 345.932 1132.72 365.404 1133.2 380.779C1133.44 388.466 1133.77 395.126 1134.05 399.881C1134.19 402.258 1134.31 404.158 1134.41 405.472C1134.45 406.129 1134.49 406.639 1134.51 406.988C1134.53 407.163 1134.54 407.298 1134.55 407.39C1134.55 407.444 1134.55 407.48 1134.55 407.501C1134.56 407.52 1134.56 407.528 1134.56 407.527Z" fill="#896262" stroke="#896262" stroke-width="0.5"/>
<path d="M1156.04 269.144C1155.86 269.144 1155.69 269.089 1155.55 268.985C1155.4 268.882 1155.3 268.736 1155.24 268.568C1155.19 268.401 1155.19 268.22 1155.24 268.052C1155.3 267.885 1155.4 267.739 1155.55 267.635C1155.65 267.562 1165.76 260.259 1180.87 254.711C1194.84 249.583 1216.09 244.934 1237.96 251.913C1238.06 251.946 1238.16 252 1238.24 252.07C1238.33 252.141 1238.4 252.227 1238.45 252.325C1238.5 252.422 1238.53 252.528 1238.54 252.638C1238.55 252.747 1238.53 252.857 1238.5 252.962C1238.47 253.066 1238.41 253.163 1238.34 253.247C1238.27 253.331 1238.19 253.4 1238.09 253.45C1237.99 253.5 1237.89 253.531 1237.78 253.54C1237.67 253.549 1237.56 253.537 1237.45 253.503C1216.03 246.668 1195.17 251.24 1181.44 256.278C1166.54 261.747 1156.62 268.913 1156.52 268.985C1156.38 269.089 1156.21 269.144 1156.04 269.144Z" fill="#896262"/>
<path d="M1117.94 174.032C1117.93 173.856 1117.97 173.681 1118.07 173.531C1118.16 173.382 1118.3 173.265 1118.46 173.199C1118.62 173.132 1118.8 173.119 1118.97 173.161C1119.14 173.203 1119.3 173.299 1119.41 173.433C1119.49 173.529 1127.48 183.111 1134.09 197.825C1140.2 211.426 1146.35 232.335 1140.99 254.708C1140.94 254.923 1140.8 255.109 1140.61 255.225C1140.42 255.34 1140.2 255.376 1139.98 255.324C1139.77 255.273 1139.58 255.137 1139.47 254.949C1139.35 254.76 1139.32 254.533 1139.37 254.318C1144.63 232.403 1138.58 211.873 1132.57 198.51C1126.06 184.007 1118.22 174.603 1118.14 174.509C1118.02 174.375 1117.96 174.208 1117.94 174.032V174.032Z" fill="#896262"/>
<path d="M1085.72 328.785C1080.09 322.962 1071.93 319.622 1063.33 319.622L1063 319.623C1057.34 319.625 1051.77 318.119 1046.88 315.259L1046.37 314.962L1046.78 314.538C1049 312.235 1050.86 309.604 1052.28 306.737C1051.27 307.681 1050.06 308.391 1048.75 308.817C1047.43 309.243 1046.04 309.373 1044.67 309.2C1043.23 309.027 1041.84 308.528 1040.61 307.74C1039.38 306.952 1038.35 305.896 1037.59 304.651C1034.58 299.762 1031 292.826 1031 287.541C1031 283.075 1031.94 278.658 1033.74 274.573C1035.54 270.488 1038.17 266.824 1041.46 263.814C1043.55 261.93 1045.21 259.627 1046.35 257.054C1047.49 254.482 1048.07 251.698 1048.06 248.885L1048.06 248.484C1048.06 244.78 1048.51 241.089 1049.4 237.495L1049.49 237.132L1049.87 237.145C1052.27 237.227 1054.67 237.025 1057.03 236.544C1054.82 236.272 1052.66 235.696 1050.61 234.832L1050.21 234.669L1050.34 234.257C1059.72 228.438 1080.88 231.452 1093.16 203.279C1103.12 180.434 1138.26 223.558 1138.26 248.484C1138.26 251.028 1135.75 254.389 1137.63 256.07C1157.95 274.243 1143.93 285.912 1139.51 297.654C1138.46 300.44 1140.73 303.499 1140.73 306.513C1140.73 307.024 1140.72 307.552 1140.69 308.082L1140.65 308.896L1139.98 308.445C1138.64 307.564 1137.39 306.543 1136.27 305.397C1137.44 308.086 1137.98 311.001 1137.88 313.931C1137.77 316.86 1137.01 319.727 1135.65 322.323C1133.52 326.352 1131.46 329.236 1129.53 330.895C1123.33 336.209 1115.35 338.95 1107.21 338.558C1099.07 338.165 1091.38 334.67 1085.72 328.785V328.785Z" fill="#00A88B"/>
<path d="M1102.22 235.446L1095 230.075C1100.61 229.5 1102.91 232.345 1103.85 234.597C1108.23 232.904 1113 235.122 1113 235.122L1098.56 240C1099.29 238.19 1100.56 236.61 1102.22 235.446V235.446Z" fill="#FFF500"/>
<path d="M1119.74 487.65C1119.94 487.65 1120.13 487.578 1120.28 487.447C1120.43 487.317 1120.53 487.137 1120.56 486.94C1120.56 486.931 1120.56 486.919 1120.56 486.916L1120.56 486.907L1120.56 486.887L1120.56 486.819C1120.56 486.761 1120.57 486.675 1120.57 486.563C1120.57 486.339 1120.58 486.009 1120.59 485.579C1120.61 484.719 1120.63 483.46 1120.67 481.853C1120.73 478.638 1120.82 474.029 1120.91 468.432C1121.11 457.237 1121.34 442.086 1121.51 426.222C1121.84 394.502 1121.9 359.903 1120.83 348.38C1118.84 327.105 1112.45 296.439 1093.3 271.244C1093.24 271.158 1093.16 271.085 1093.06 271.03C1092.97 270.975 1092.86 270.94 1092.76 270.925C1092.65 270.91 1092.54 270.917 1092.44 270.945C1092.33 270.973 1092.23 271.021 1092.15 271.087C1092.06 271.153 1091.99 271.235 1091.93 271.329C1091.88 271.423 1091.84 271.527 1091.83 271.634C1091.81 271.742 1091.82 271.851 1091.85 271.956C1091.88 272.061 1091.92 272.16 1091.99 272.246C1110.89 297.117 1117.21 327.451 1119.18 348.534C1120.25 359.957 1120.19 394.455 1119.86 426.139C1119.7 441.977 1119.46 457.105 1119.27 468.284C1119.18 473.874 1119.09 478.476 1119.03 481.687C1118.99 483.292 1118.97 484.549 1118.95 485.407C1118.94 485.837 1118.93 486.166 1118.93 486.39C1118.93 486.501 1118.92 486.586 1118.92 486.644L1118.92 486.709L1118.92 486.72C1118.91 486.833 1118.92 486.948 1118.95 487.057C1118.98 487.171 1119.04 487.276 1119.12 487.365C1119.19 487.455 1119.29 487.526 1119.4 487.576C1119.51 487.625 1119.62 487.65 1119.74 487.65Z" fill="#896262" stroke="#896262" stroke-width="0.5"/>
<path d="M1104.15 306.859C1104.27 306.859 1104.39 306.82 1104.49 306.749C1104.58 306.677 1104.66 306.576 1104.69 306.46C1104.73 306.344 1104.73 306.22 1104.69 306.104C1104.66 305.988 1104.58 305.887 1104.49 305.815C1104.42 305.765 1097.43 300.715 1086.98 296.879C1077.31 293.333 1062.62 290.118 1047.5 294.944C1047.43 294.967 1047.36 295.004 1047.3 295.052C1047.25 295.101 1047.2 295.161 1047.16 295.228C1047.13 295.296 1047.11 295.369 1047.1 295.445C1047.09 295.52 1047.1 295.596 1047.13 295.669C1047.15 295.741 1047.19 295.808 1047.23 295.866C1047.28 295.924 1047.34 295.972 1047.41 296.006C1047.48 296.041 1047.55 296.062 1047.63 296.069C1047.7 296.075 1047.78 296.066 1047.85 296.043C1062.66 291.317 1077.09 294.478 1086.58 297.962C1096.88 301.744 1103.74 306.699 1103.81 306.749C1103.91 306.82 1104.03 306.859 1104.15 306.859Z" fill="#896262"/>
<path d="M1130.49 241.091C1130.49 240.969 1130.46 240.848 1130.4 240.745C1130.34 240.641 1130.24 240.56 1130.13 240.515C1130.02 240.469 1129.89 240.46 1129.77 240.489C1129.66 240.518 1129.55 240.584 1129.47 240.677C1129.42 240.743 1123.89 247.369 1119.32 257.543C1115.1 266.948 1110.84 281.406 1114.55 296.876C1114.59 297.025 1114.68 297.154 1114.81 297.234C1114.94 297.313 1115.1 297.338 1115.25 297.302C1115.4 297.267 1115.52 297.173 1115.6 297.043C1115.68 296.912 1115.71 296.755 1115.67 296.607C1112.04 281.453 1116.22 267.257 1120.37 258.017C1124.87 247.988 1130.3 241.485 1130.35 241.421C1130.43 241.328 1130.48 241.212 1130.49 241.091V241.091Z" fill="#896262"/>
</g>
</g>
<defs>
<clipPath id="clip0_133_90">
<rect width="1562" height="628" fill="white"/>
</clipPath>
<clipPath id="clip1_133_90">
<rect width="1992.32" height="2345.1" fill="white" transform="translate(-224)"/>
</clipPath>
</defs>
</svg>
