<svg width="59" height="59" viewBox="0 0 59 59" fill="none" xmlns="http://www.w3.org/2000/svg">
<path d="M59 0H0V59H59V0Z" fill="white" fill-opacity="0.01"/>
<path d="M19.6667 27.0417L12.2917 14.75L4.91675 27.0417" stroke="#ECE7B4" stroke-width="2" stroke-linecap="round" stroke-linejoin="round"/>
<path fill-rule="evenodd" clip-rule="evenodd" d="M12.2917 34.4166C16.3648 34.4166 19.6667 31.1147 19.6667 27.0416H4.91675C4.91675 31.1147 8.21865 34.4166 12.2917 34.4166Z" stroke="#ECE7B4" stroke-width="2" stroke-linecap="round" stroke-linejoin="round"/>
<path d="M54.0833 27.0417L46.7083 14.75L39.3333 27.0417" stroke="#ECE7B4" stroke-width="2" stroke-linecap="round" stroke-linejoin="round"/>
<path fill-rule="evenodd" clip-rule="evenodd" d="M46.7083 34.4166C50.7813 34.4166 54.0833 31.1147 54.0833 27.0416H39.3333C39.3333 31.1147 42.6352 34.4166 46.7083 34.4166Z" stroke="#ECE7B4" stroke-width="2" stroke-linecap="round" stroke-linejoin="round"/>
<path d="M29.5 7.375V51.625" stroke="#ECE7B4" stroke-width="2" stroke-linecap="round" stroke-linejoin="round"/>
<path d="M12.2917 14.75H29.5001H46.7084" stroke="#ECE7B4" stroke-width="2" stroke-linecap="round" stroke-linejoin="round"/>
<path d="M12.2917 14.75H29.5001H46.7084" stroke="#ECE7B4" stroke-width="2" stroke-linecap="round" stroke-linejoin="round"/>
<path d="M46.7084 51.625H29.5001H12.2917" stroke="#ECE7B4" stroke-width="2" stroke-linecap="round" stroke-linejoin="round"/>
</svg>
