<svg width="55" height="40" viewBox="0 0 55 40" fill="none" xmlns="http://www.w3.org/2000/svg">
<path d="M9.2999 1.5C-1.09997 11.5515 -1.09997 27.8481 9.2999 37.8996" stroke="white" stroke-width="2" stroke-linecap="round" stroke-linejoin="round"/>
<path d="M45.8849 38.1542C56.0384 28.0324 56.0384 11.6218 45.8849 1.5" stroke="url(#paint0_linear_242_12)" stroke-width="2" stroke-linecap="round" stroke-linejoin="round"/>
<path d="M44 5.34583H13.8458V35.5H44V5.34583Z" fill="white" fill-opacity="0.01"/>
<path d="M20.7562 15.3972C22.4909 15.3972 23.8972 13.9909 23.8972 12.2562C23.8972 10.5214 22.4909 9.11511 20.7562 9.11511C19.0214 9.11511 17.6151 10.5214 17.6151 12.2562C17.6151 13.9909 19.0214 15.3972 20.7562 15.3972Z" stroke="#FFF500" stroke-width="2" stroke-linecap="round" stroke-linejoin="round"/>
<path d="M37.0897 31.7306C38.8244 31.7306 40.2307 30.3243 40.2307 28.5895C40.2307 26.8548 38.8244 25.4485 37.0897 25.4485C35.3549 25.4485 33.9486 26.8548 33.9486 28.5895C33.9486 30.3243 35.3549 31.7306 37.0897 31.7306Z" stroke="#FFF500" stroke-width="2" stroke-linecap="round" stroke-linejoin="round"/>
<path d="M40.2307 9.11511L17.6151 31.7307" stroke="#2CFF04" stroke-width="2" stroke-linecap="round" stroke-linejoin="round"/>
<defs>
<linearGradient id="paint0_linear_242_12" x1="49.6924" y1="1.5" x2="49.6924" y2="38.1542" gradientUnits="userSpaceOnUse">
<stop stop-color="white"/>
<stop offset="1" stop-color="#979797"/>
</linearGradient>
</defs>
</svg>
