<svg width="55" height="40" viewBox="0 0 55 40" fill="none" xmlns="http://www.w3.org/2000/svg">
<path d="M27.5003 25.7178C30.7638 25.7178 33.4094 23.0805 33.4094 19.8271C33.4094 16.5739 30.7638 13.9366 27.5003 13.9366C24.2368 13.9366 21.5914 16.5739 21.5914 19.8271C21.5914 23.0805 24.2368 25.7178 27.5003 25.7178Z" stroke="#2CFF04" stroke-width="2" stroke-linecap="round" stroke-linejoin="round"/>
<path d="M17.0998 7.99988C10.1666 14.4616 10.1666 24.9379 17.0998 31.3996" stroke="#FFF500" stroke-width="2" stroke-linecap="round" stroke-linejoin="round"/>
<path d="M37.8996 31.3996C44.8328 24.9379 44.8328 14.4616 37.8996 7.99988" stroke="#FFF500" stroke-width="2" stroke-linecap="round" stroke-linejoin="round"/>
<path d="M9.2999 1.5C-1.09997 11.5515 -1.09997 27.8481 9.2999 37.8996" stroke="white" stroke-width="2" stroke-linecap="round" stroke-linejoin="round"/>
<path d="M45.8849 38.1542C56.0384 28.0324 56.0384 11.6218 45.8849 1.5" stroke="url(#paint0_linear_186_370)" stroke-width="2" stroke-linecap="round" stroke-linejoin="round"/>
<defs>
<linearGradient id="paint0_linear_186_370" x1="49.6924" y1="1.5" x2="49.6924" y2="38.1542" gradientUnits="userSpaceOnUse">
<stop stop-color="white"/>
<stop offset="1" stop-color="#979797"/>
</linearGradient>
</defs>
</svg> 