<svg width="30" height="23" viewBox="0 0 30 23" fill="none" xmlns="http://www.w3.org/2000/svg">
<path d="M24.7187 2.75875C22.9062 1.93712 20.9682 1.34001 18.942 1C18.6932 1.43587 18.4025 2.02214 18.2021 2.4885C16.0482 2.17468 13.9142 2.17468 11.8 2.4885C11.5996 2.02214 11.3023 1.43587 11.0513 1C9.02294 1.34001 7.08272 1.93932 5.27023 2.7631C1.61442 8.11553 0.623387 13.335 1.1189 18.4804C3.54363 20.2347 5.89348 21.3005 8.20367 21.9978C8.77407 21.2372 9.28279 20.4287 9.72104 19.5766C8.88638 19.2693 8.08695 18.8901 7.33159 18.4499C7.53198 18.3061 7.728 18.1557 7.91738 18.0009C12.5246 20.0887 17.5304 20.0887 22.0825 18.0009C22.2741 18.1557 22.4701 18.3061 22.6683 18.4499C21.9107 18.8923 21.1091 19.2715 20.2745 19.5788C20.7127 20.4287 21.2192 21.2394 21.7918 22C24.1042 21.3026 26.4563 20.2369 28.881 18.4804C29.4624 12.5156 27.8878 7.34404 24.7187 2.75875ZM10.3487 15.316C8.96568 15.316 7.83148 14.0651 7.83148 12.5417C7.83148 11.0184 8.94146 9.76528 10.3487 9.76528C11.756 9.76528 12.8902 11.0162 12.8659 12.5417C12.8681 14.0651 11.756 15.316 10.3487 15.316ZM19.6512 15.316C18.2682 15.316 17.134 14.0651 17.134 12.5417C17.134 11.0184 18.2439 9.76528 19.6512 9.76528C21.0584 9.76528 22.1926 11.0162 22.1684 12.5417C22.1684 14.0651 21.0584 15.316 19.6512 15.316Z" stroke="white" stroke-width="1.3"/>
</svg>
