<svg width="33" height="33" viewBox="0 0 33 33" fill="none" xmlns="http://www.w3.org/2000/svg">
<path d="M33 0H0V33H33V0Z" fill="white" fill-opacity="0.01"/>
<path d="M20.1743 20.9528C21.8268 20.6093 23.3263 20.0138 24.492 19.1396C26.4826 17.6466 27.5 15.3407 27.5 13.0626C27.5 11.4644 26.8941 9.97232 25.8451 8.70856C25.2606 8.00436 26.9703 2.75008 25.4513 3.45772C23.9322 4.16536 21.7049 5.73169 20.5374 5.38601C19.2875 5.01591 17.9254 4.81258 16.5 4.81258C15.262 4.81258 14.0717 4.96597 12.9612 5.2488C11.3469 5.65991 9.80313 4.12508 8.25 3.45772C6.69684 2.79036 7.54435 8.22484 7.08304 8.79636C6.07832 10.0411 5.5 11.5012 5.5 13.0626C5.5 15.3407 6.73122 17.6466 8.72183 19.1396C10.0479 20.1341 11.7109 20.7679 13.5713 21.0803" stroke="white" stroke-width="1.375" stroke-linecap="round"/>
<path d="M13.5714 21.0801C12.775 21.9568 12.3767 22.7892 12.3767 23.5775C12.3767 24.3657 12.3767 26.3632 12.3767 29.5699" stroke="white" stroke-width="1.375" stroke-linecap="round"/>
<path d="M20.1743 20.9526C20.9291 21.9432 21.3064 22.8326 21.3064 23.6208C21.3064 24.4091 21.3064 26.3921 21.3064 29.5698" stroke="white" stroke-width="1.375" stroke-linecap="round"/>
<path d="M4.125 21.4607C4.74297 21.5362 5.20131 21.8204 5.5 22.3131C5.94804 23.0521 7.61351 25.7937 9.50476 25.7937C10.7656 25.7937 11.7229 25.7937 12.3766 25.7937" stroke="white" stroke-width="1.375" stroke-linecap="round"/>
</svg>
