<svg width="33" height="33" viewBox="0 0 33 33" fill="none" xmlns="http://www.w3.org/2000/svg">
<path d="M33 0H0V33H33V0Z" fill="white" fill-opacity="0.01"/>
<path d="M23.375 4.125H9.625C6.58743 4.125 4.125 6.58743 4.125 9.625V23.375C4.125 26.4126 6.58743 28.875 9.625 28.875H23.375C26.4126 28.875 28.875 26.4126 28.875 23.375V9.625C28.875 6.58743 26.4126 4.125 23.375 4.125Z" stroke="white" stroke-width="1.375" stroke-linejoin="round"/>
<path d="M16.5 22C19.5376 22 22 19.5376 22 16.5C22 13.4624 19.5376 11 16.5 11C13.4624 11 11 13.4624 11 16.5C11 19.5376 13.4624 22 16.5 22Z" stroke="white" stroke-width="1.375" stroke-linejoin="round"/>
<path d="M24.0625 10.3125C24.8219 10.3125 25.4375 9.69691 25.4375 8.9375C25.4375 8.17809 24.8219 7.5625 24.0625 7.5625C23.3031 7.5625 22.6875 8.17809 22.6875 8.9375C22.6875 9.69691 23.3031 10.3125 24.0625 10.3125Z" fill="white"/>
</svg>
