<svg width="31" height="26" viewBox="0 0 31 26" fill="none" xmlns="http://www.w3.org/2000/svg">
<path d="M14.2059 18.4727C16.0609 20.1094 21.329 23.4573 21.6258 23.6805C21.9968 23.9781 24.0001 25.3172 25.3357 25.0197C26.6713 24.722 26.8197 23.0109 26.8197 23.0109L28.6004 11.3305C29.1198 7.38742 29.7876 3.74196 29.8618 2.70038C30.0844 0.170868 27.4133 1.21243 27.4133 1.21243C19.3257 4.56029 10.1992 8.13137 2.77935 11.6281C-0.262793 12.7441 1.51798 13.86 1.51798 13.86L6.34091 15.348C8.56683 16.0175 9.75401 15.2736 9.75401 15.2736M14.2059 18.4727C13.6865 18.0263 13.0929 17.1335 14.2801 16.0919L22.071 8.65222C22.9614 7.75943 23.8517 5.67631 20.1418 8.20582L9.75401 15.2736M14.2059 18.4727L10 22L9.75401 15.2736" stroke="white" stroke-width="1.38"/>
</svg>
