<svg width="30" height="25" viewBox="0 0 30 25" fill="none" xmlns="http://www.w3.org/2000/svg">
<path d="M28.7369 1.95238L28.737 1.95239C28.7831 1.42799 28.6677 1.22825 28.6097 1.15984C28.5502 1.08981 28.4397 1.02657 28.2236 1.00773C28.0063 0.988789 27.7597 1.02348 27.5477 1.07336C27.446 1.09731 27.361 1.12265 27.3029 1.14148C27.2741 1.15084 27.2523 1.15842 27.2391 1.1632L27.2292 1.16682C25.2519 1.98525 23.2159 2.81574 21.1602 3.6543C14.7893 6.25304 8.22824 8.92933 2.636 11.5647L2.60827 11.5778L2.5795 11.5883C1.85989 11.8523 1.50838 12.0885 1.34992 12.2474C1.28434 12.3131 1.26115 12.3545 1.25379 12.3744C1.25584 12.3802 1.26029 12.3908 1.26954 12.4063C1.28588 12.4336 1.31075 12.4653 1.34298 12.4982C1.36135 12.517 1.37971 12.5337 1.39637 12.5479L6.10443 14.0004C7.11209 14.3031 7.8551 14.2784 8.32383 14.195C8.56027 14.153 8.73185 14.0951 8.83676 14.0525C8.88928 14.0312 8.92519 14.0137 8.94421 14.0039C8.94656 14.0026 8.94866 14.0015 8.9505 14.0006L19.3156 6.94823C19.3157 6.94815 19.3158 6.94807 19.3159 6.94799L28.7369 1.95238ZM28.7369 1.95238L28.736 1.96386C28.7021 2.43998 28.5285 3.54463 28.2891 5.06825L28.2789 5.13276C28.0381 6.66512 27.7405 8.56737 27.4798 10.5459L28.7369 1.95238ZM1.25122 12.3885C1.25045 12.3886 1.25027 12.3848 1.25298 12.3767C1.25334 12.3844 1.25198 12.3885 1.25122 12.3885Z" stroke="white" stroke-width="1.38"/>
</svg>
