<svg width="33" height="33" viewBox="0 0 33 33" fill="none" xmlns="http://www.w3.org/2000/svg">
<path d="M33 0H0V33H33V0Z" fill="white" fill-opacity="0.01"/>
<path d="M3.4375 24.5865C4.76359 25.3197 14.3628 30.8531 21.1887 26.5884C28.0145 22.3236 27.6379 14.976 27.6379 11.6091C28.2562 10.3137 29.5625 9.65518 29.5625 6.14886C28.2794 7.33411 27.0041 7.7374 25.7366 7.35872C24.4947 5.46533 22.7862 4.62788 20.6108 4.84642C17.3479 5.17422 16.1541 8.37547 16.5054 12.5171C11.4743 15.0613 7.52916 10.6727 5.496 7.35872C4.81667 9.96868 4.16164 13.1021 5.496 16.5684C6.38557 18.8792 8.52397 20.8329 11.9112 22.4294C8.47846 24.2899 5.65388 25.0089 3.4375 24.5865Z" stroke="white" stroke-width="1.375" stroke-linejoin="round"/>
</svg>
